<svg xmlns="http://www.w3.org/2000/svg" viewBox="0 0 191.41 107.2"><title>Asset 16</title><g id="Layer_2" data-name="Layer 2"><g id="Слой_1" data-name="Слой 1"><path d="M190.2,95.1c2.2-7,.9-13.4,0-14.8-24.7,22.6-58.5,17.5-90.7,2S14.1,64.2,7.4,64.2,0,61.5,0,76.3,55.1,97.8,76,97.8s55.8,9.4,66.5,9.4S187.5,103.8,190.2,95.1Z" fill="#8000ff"/><path d="M42.82,62.91c-9.7-2.6-31.2-3.6-38.8-3.8,0-21.6,7.6-35,9.6-36.3C30.52,33.11,40.22,53.41,42.82,62.91Z" fill="#91e63d"/><path d="M186.9,78.9c-4.9,3.6-20,11.7-38.8,11.7-15.8,0-29.2-5.6-43.4-11.4C88.7,72.6,72.4,66.7,49,64.3c-3.4-11.7-14.8-36-33.6-44.6-.9-4-.8-11.6,6.7-9.4,4.1,1.2,7.3,5.9,10.7,10.9,4.4,6.5,9,13.3,16.2,13.3,12.8,0,21.5-8.7,18.1-14.8s-6-16.1,4-19.5c4-1.4,9.3,4.7,16.9,13.4,3,3.5,6.5,7.4,10.3,11.5a4.57,4.57,0,0,0,.5,1.5,5.6,5.6,0,0,1,.4,2.9,3.35,3.35,0,0,1-1.2,2c-1.9,2-6.1,4.3-13.8,7.6a2.6,2.6,0,1,0,2,4.8c7.6-3.3,12.7-5.9,15.5-8.7a9.31,9.31,0,0,0,2.5-4.1,116.41,116.41,0,0,0,17.3,13.8,1.88,1.88,0,0,0,.2.8,3.19,3.19,0,0,1,.3,2,3.9,3.9,0,0,1-1.1,1.7c-1.5,1.5-4.1,3-8,5.2l-.4.2a2.57,2.57,0,0,0,2.5,4.5c.3-.2.5-.3.8-.5,3.4-2,6.6-3.8,8.6-5.8a8.19,8.19,0,0,0,2.5-4.2,1.27,1.27,0,0,0,.1-.6,94.78,94.78,0,0,0,14,6.5c.8.3,1.7.6,2.5.9a2.52,2.52,0,0,0,.1,1.7,30.63,30.63,0,0,1-4.1,2.6,2.56,2.56,0,1,0,2.6,4.4l.1-.1a34.53,34.53,0,0,0,5.1-3.4,5.15,5.15,0,0,0,1.6-2.7c0-.2.1-.4.1-.6,8.6,3,15.4,5.1,20.7,6.8C186.6,69.6,189.3,70.4,186.9,78.9Z" fill="#8e3ae2" fill-rule="evenodd"/></g></g></svg>